<svg width="20" height="18" viewBox="0 0 20 18" fill="none" xmlns="http://www.w3.org/2000/svg">
<path d="M17.4786 14.7409C19.0455 13.1755 20 11.1176 20 8.86497C20 6.52125 18.9669 4.38877 17.2855 2.80194V2.80163C17.2841 2.7998 17.2821 2.79919 17.281 2.79766C15.5297 1.14725 13.0759 0.0907895 10.3466 0.0079479L10.3462 0.00764221L10.1514 0.00305688C10.101 0.00152844 10.0507 0 10 0C9.94931 0 9.89897 0.00152844 9.84862 0.00305688L9.65448 0.00764221L9.65414 0.0079479C6.92483 0.0907895 4.47103 1.14725 2.71966 2.79766C2.71828 2.79919 2.71621 2.7998 2.71517 2.80163C2.71517 2.80163 2.71517 2.80194 2.71483 2.80225C1.0331 4.38877 0 6.52125 0 8.86497C0 11.1176 0.954483 13.1755 2.52138 14.7409C2.52345 14.7437 2.52345 14.7467 2.52586 14.7495C2.53207 14.7571 2.54103 14.7608 2.54759 14.7678C4.30828 16.5127 6.83448 17.6367 9.65379 17.7223L9.65414 17.7226L9.84828 17.7272C9.89897 17.7284 9.94931 17.7299 10 17.7299C10.0507 17.7299 10.101 17.7284 10.1514 17.7269L10.3455 17.7223L10.3459 17.722C13.1683 17.6361 15.6972 16.5099 17.4579 14.7614C17.4624 14.7562 17.4697 14.7547 17.4738 14.7492C17.4766 14.7467 17.4766 14.7437 17.4786 14.7409ZM0.698276 9.17065H4.83724C4.87621 10.4665 5.16172 11.7256 5.67 12.9052C4.68931 13.2198 3.75172 13.6417 2.8731 14.168C1.58103 12.8056 0.776897 11.069 0.698276 9.17065ZM3.06138 3.3696C3.91931 3.86421 4.83276 4.26038 5.78552 4.55629C5.20207 5.81175 4.87931 7.16534 4.83724 8.55928H0.698276C0.78069 6.57016 1.65931 4.75896 3.06138 3.3696ZM19.3017 8.55928H15.1628C15.1207 7.16534 14.7979 5.81175 14.2145 4.55629C15.1672 4.26038 16.0807 3.86421 16.9386 3.3696C18.3407 4.75896 19.2193 6.57016 19.3017 8.55928ZM9.65517 4.57402C8.65828 4.54895 7.67966 4.4172 6.73414 4.18182C7.4331 2.91077 8.42 1.76352 9.65517 0.80824V4.57402ZM9.65517 5.18539V8.55928H5.5269C5.56931 7.23014 5.88379 5.94106 6.44621 4.74581C7.48276 5.01207 8.55897 5.15941 9.65517 5.18539ZM10.3448 5.18539C11.441 5.15941 12.5172 5.01237 13.5541 4.74581C14.1166 5.94106 14.431 7.23014 14.4734 8.55928H10.3448V5.18539ZM10.3448 4.57402V0.80824C11.58 1.76352 12.5669 2.91077 13.2659 4.18182C12.3203 4.4172 11.3417 4.54895 10.3448 4.57402ZM13.9341 3.99596C13.2717 2.76556 12.3524 1.6446 11.2141 0.683825C13.2334 0.917982 15.0503 1.72745 16.4497 2.92085C15.6552 3.36777 14.8124 3.72726 13.9341 3.99596ZM6.06586 3.99596C5.18759 3.72726 4.34483 3.36777 3.55069 2.92085C4.94966 1.72745 6.7669 0.917982 8.78621 0.683825C7.64759 1.6446 6.72828 2.76556 6.06586 3.99596ZM5.5269 9.17065H9.65517V12.2392C8.51483 12.2661 7.39759 12.4238 6.32379 12.7102C5.83862 11.5929 5.56586 10.3992 5.5269 9.17065ZM9.65517 12.8505V16.9217C8.3331 15.8992 7.29655 14.6568 6.59172 13.2788C7.58034 13.0205 8.60724 12.8768 9.65517 12.8505ZM10.3448 16.9217V12.8505C11.3928 12.8765 12.4197 13.0205 13.4083 13.2785C12.7034 14.6568 11.6669 15.8992 10.3448 16.9217ZM10.3448 12.2392V9.17065H14.4731C14.4341 10.3992 14.1614 11.5929 13.6759 12.7105C12.6024 12.4238 11.4852 12.2661 10.3448 12.2392ZM15.1628 9.17065H19.3017C19.2231 11.069 18.4193 12.8056 17.1269 14.168C16.2483 13.6417 15.3107 13.2198 14.33 12.9052C14.8386 11.7256 15.1238 10.4665 15.1628 9.17065ZM3.34172 14.626C4.15759 14.1454 5.02621 13.759 5.93379 13.4702C6.60448 14.803 7.56724 16.0175 8.78586 17.0461C6.66483 16.8 4.76655 15.9196 3.34172 14.626ZM11.2141 17.0461C12.4328 16.0178 13.3955 14.8033 14.0662 13.4702C14.9738 13.759 15.8421 14.1454 16.6583 14.626C15.2334 15.9196 13.3352 16.8 11.2141 17.0461Z" fill="white"/>
</svg>
