<svg width="20" height="18" viewBox="0 0 20 18" fill="none" xmlns="http://www.w3.org/2000/svg">
<path d="M19.8779 16.5771L14.0681 11.4267C15.17 10.2207 15.8334 8.68744 15.8334 7.01812C15.8334 3.14835 12.2819 0 7.91666 0C3.55142 0 0 3.14835 0 7.01812C0 10.8879 3.55146 14.0362 7.9167 14.0362C9.79975 14.0362 11.5293 13.4482 12.8897 12.4713L18.6996 17.6217C18.8624 17.766 19.1261 17.766 19.2889 17.6217L19.878 17.0995C20.0407 16.9552 20.0407 16.7213 19.8779 16.5771ZM7.9167 12.5587C4.47025 12.5587 1.66668 10.0734 1.66668 7.01812C1.66668 3.96285 4.47025 1.47751 7.9167 1.47751C11.3632 1.47751 14.1667 3.96285 14.1667 7.01812C14.1667 10.0734 11.3632 12.5587 7.9167 12.5587Z" fill="white"/>
</svg>
